<?xml version="1.0"?><svg width="656.80536" height="591.75153" xmlns="http://www.w3.org/2000/svg">
 <title>trolley1</title>

 <metadata id="metadata7">image/svg+xmlMarket Basket27.06.2007Jakub Klawiter</metadata>
 <g>
  <title>Layer 1</title>
  <g id="svg_1">
   <path fill="#007f00" fill-rule="nonzero" stroke-width="30" stroke-linecap="round" stroke-linejoin="round" stroke-miterlimit="4" stroke-dashoffset="0" d="m149.115997,489.779999c99.221008,-42.493011 270.645996,-30.770996 361.026001,27.839996c32.909027,-40.539001 21.61203,-138.223999 -16.209991,-149.458008c26.03302,-99.151001 -26.03302,-311.127289 100.203003,-317.965286c50.593018,53.727303 82.028992,-65.449001 1.473999,-36.631901c-166.499023,15.9403 -108.447021,222.029194 -147.358002,344.340199c-139.498016,-30.282013 -373.30481,36.143005 -325.659004,73.264008c138.515999,-37.121002 309.449989,-81.567017 371.340004,45.423004c-68.766998,-68.378998 -323.20401,-56.169006 -344.81601,13.187988l0,0l0,0z" id="path3176"/>
   <path fill="#007f00" fill-rule="nonzero" stroke-width="30" stroke-linecap="round" stroke-linejoin="round" stroke-miterlimit="4" stroke-dashoffset="0" id="path3202" d="m175.611237,402.546173c-121.021297,-91.659485 -393.978546,-358.787933 327.56427,-228.421234c-530.880007,-26.188416 -461.494507,14.549118 -327.56427,228.421234z"/>
   <path fill="#007f00" fill-rule="nonzero" stroke-width="30" stroke-linecap="round" stroke-linejoin="round" stroke-miterlimit="4" stroke-dashoffset="0" id="path3204" d="m85.248596,257.054993c126.113403,-35.403 278.0224,-48.981995 416.173401,-26.187988c-130.126007,-7.76001 -280.888,19.397995 -402.415588,53.830994c-4.585999,-9.213989 -9.171898,-18.428986 -13.757813,-27.643005l0,0z"/>
   <path fill="#007f00" fill-rule="nonzero" stroke-width="30" stroke-linecap="round" stroke-linejoin="round" stroke-miterlimit="4" stroke-dashoffset="0" id="path3206" d="m123.974998,323.980988c6.875999,10.184021 13.752007,20.369019 20.627007,30.553009c93.132996,-46.557007 221.89299,-66.925995 354.404007,-61.105988c-98.133026,-39.283005 -222.518005,-24.734009 -375.031013,30.552979l0,0l0,0z"/>
   <path fill="#007f00" fill-rule="nonzero" stroke-width="30" stroke-linecap="round" stroke-linejoin="round" stroke-miterlimit="4" stroke-dashoffset="0" id="path3208" d="m91.70314,183.010025c15.512383,-6.356491 31.02475,-12.712997 46.53714,-19.069489c67.398575,74.322083 102.702621,151.577927 125.168839,231.767532c-42.792786,-75.299988 -90.399734,-143.265594 -171.705978,-212.698044z"/>
   <path fill="#007f00" fill-rule="nonzero" stroke-width="30" stroke-linecap="round" stroke-linejoin="round" stroke-miterlimit="4" stroke-dashoffset="0" id="path3210" d="m188.520157,156.665985c13.446808,-0.48497 26.893631,-0.969925 40.340424,-1.454895c61.317459,66.925964 87.13533,135.306824 87.13533,205.142609c-23.12851,-67.895905 -59.165955,-135.791794 -127.475754,-203.687714z"/>
   <path fill="#007f00" fill-rule="nonzero" stroke-width="30" stroke-linecap="round" stroke-linejoin="round" stroke-miterlimit="4" stroke-dashoffset="0" id="path3212" d="m301.473541,158.121033c15.539856,0.613693 31.07962,1.227371 46.619446,1.841064c29.784637,73.028992 51.799347,142.375824 48.56189,219.086914c-10.359894,-77.324799 -47.914398,-145.44426 -95.181335,-220.927979z"/>
   <path fill="#007f00" fill-rule="nonzero" stroke="#fffdff" stroke-width="9.127374" stroke-linecap="round" stroke-linejoin="round" stroke-miterlimit="4" stroke-dashoffset="0" d="m181.800171,464.70871c-8.866333,0.126312 -17.138077,2.63504 -23.770035,7.754608c-19.292938,14.89325 -17.492188,46.241882 4.021378,69.985779c21.513596,23.743958 54.638351,30.936768 73.931305,16.043518c19.292938,-14.89325 17.492233,-46.258118 -4.021362,-70.002014c-14.118286,-15.58197 -33.234634,-24.023041 -50.161285,-23.781891zm15.173752,29.739502c7.412064,-0.113739 15.780548,3.884674 21.96286,11.235321c9.420639,11.200928 10.22287,25.984009 1.774612,33.009705c-8.448273,7.025696 -22.961945,3.640564 -32.382599,-7.560364c-9.42067,-11.200867 -10.206589,-26.000214 -1.758331,-33.025909c2.904083,-2.4151 6.52095,-3.599182 10.403458,-3.658752z" id="path3234"/>
   <path fill="#007f00" fill-rule="nonzero" stroke="#fffdff" stroke-width="9.127374" stroke-linecap="round" stroke-linejoin="round" stroke-miterlimit="4" stroke-dashoffset="0" d="m444.833832,464.70871c-8.866364,0.126312 -17.138123,2.63504 -23.77005,7.754608c-19.292938,14.89325 -17.492188,46.241882 4.021362,69.985779c21.51358,23.743958 54.638367,30.936768 73.931335,16.043518c19.292908,-14.89325 17.492249,-46.258118 -4.021362,-70.002014c-14.118317,-15.58197 -33.23468,-24.023041 -50.161285,-23.781891zm15.173737,29.739502c7.412048,-0.113739 15.780518,3.884674 21.96286,11.235321c9.420654,11.200928 10.22287,25.984009 1.774597,33.009705c-8.448242,7.025696 -22.961914,3.640564 -32.382568,-7.560364c-9.420685,-11.200867 -10.206635,-26.000214 -1.758362,-33.025909c2.904083,-2.4151 6.520966,-3.599182 10.403473,-3.658752z" id="path3243"/>
  </g>
 </g>
</svg>